<svg width="278" height="67" viewBox="0 0 278 67" fill="none" xmlns="http://www.w3.org/2000/svg">
    <g filter="url(#filter0_d_12_2)">
        <path d="M20.602 18.7959C20.602 20.6708 21.2975 22.0316 22.6886 22.8783C24.0797 23.9065 27.0433 24.9649 31.5793 26.0536C36.3573 27.2027 39.835 28.7753 42.0123 30.7711C44.2501 32.767 45.369 35.6399 45.369 39.3897C45.369 43.321 43.8872 46.4962 40.9237 48.9155C38.0206 51.3347 34.2103 52.5443 29.4927 52.5443C22.6584 52.5443 16.4893 50.1251 10.9855 45.2866L15.703 39.6619C20.2996 43.5931 24.9567 45.5588 29.6742 45.5588C32.0329 45.5588 33.9381 45.0447 35.3896 44.0165C36.8412 42.9278 37.567 41.5368 37.567 39.8433C37.567 38.1498 36.9017 36.8192 35.5711 35.8515C34.301 34.8838 32.0027 34.0069 28.6762 33.2206C22.9305 31.89 18.9388 30.3175 16.701 28.5031C14.1003 26.5072 12.8 23.4529 12.8 19.3402C12.8 15.3485 14.2515 12.2337 17.1546 9.99588C20.0577 7.69759 23.7773 6.54845 28.3134 6.54845C34.4219 6.54845 39.6536 8.33264 44.0082 11.901L40.0164 17.5258C38.6859 16.3161 36.9017 15.3485 34.6639 14.6227C32.4261 13.8364 30.2185 13.4433 28.0412 13.4433C25.8034 13.4433 23.989 13.9271 22.5979 14.8948C21.2673 15.8021 20.602 17.1024 20.602 18.7959ZM69.9025 7.63711C76.5554 7.63711 81.4241 8.93745 84.5087 11.5381C87.6537 14.0783 89.2262 18.0399 89.2262 23.4227C89.2262 28.745 87.6537 32.6763 84.5087 35.2165C81.3637 37.6962 76.5252 38.9361 69.9932 38.9361H62.1912V52H54.6613V7.63711H69.9025ZM70.8097 32.2227C74.8015 32.2227 77.5836 31.4667 79.1561 29.9546C80.7891 28.4426 81.6056 26.0536 81.6056 22.7876C81.6056 19.7636 80.6681 17.6165 78.7932 16.3464C76.9183 15.0763 73.8942 14.4412 69.7211 14.4412H62.1912V32.2227H70.8097ZM104.405 41.9299L99.9601 52H91.9766L111.572 7.63711H119.556L139.061 52H131.078L126.632 41.9299H104.405ZM123.638 34.9443L115.564 16.7093L107.49 34.9443H123.638ZM171.095 35.8515L182.707 52H173.182L162.567 37.0309H152.769V52H145.239V7.63711H161.751C168.464 7.63711 173.272 8.78625 176.175 11.0845C179.139 13.3223 180.621 16.9814 180.621 22.0619C180.621 29.3801 177.446 33.9766 171.095 35.8515ZM162.023 30.3175C166.196 30.3175 169.069 29.6825 170.641 28.4124C172.214 27.1423 173 24.9952 173 21.9711C173 19.068 172.214 17.1024 170.641 16.0742C169.069 14.9856 166.257 14.4412 162.204 14.4412H152.769V30.3175H162.023Z" fill="url(#paint0_linear_12_2)"/>
        <path d="M191.474 7.63711H199.004V29.2289L219.325 7.63711H228.76L210.979 27.0515L229.033 52H220.142L205.445 32.5856L199.004 39.5711V52H191.474V7.63711Z" fill="url(#paint1_linear_12_2)"/>
        <path d="M242.149 18.7959C242.149 20.6708 242.844 22.0316 244.235 22.8783C245.627 23.9065 248.59 24.9649 253.126 26.0536C257.904 27.2027 261.382 28.7753 263.559 30.7711C265.797 32.767 266.916 35.6399 266.916 39.3897C266.916 43.321 265.434 46.4962 262.471 48.9155C259.567 51.3347 255.757 52.5443 251.04 52.5443C244.205 52.5443 238.036 50.1251 232.532 45.2866L237.25 39.6619C241.846 43.5931 246.504 45.5588 251.221 45.5588C253.58 45.5588 255.485 45.0447 256.937 44.0165C258.388 42.9278 259.114 41.5368 259.114 39.8433C259.114 38.1498 258.449 36.8192 257.118 35.8515C255.848 34.8838 253.55 34.0069 250.223 33.2206C244.477 31.89 240.486 30.3175 238.248 28.5031C235.647 26.5072 234.347 23.4529 234.347 19.3402C234.347 15.3485 235.798 12.2337 238.701 9.99588C241.605 7.69759 245.324 6.54845 249.86 6.54845C255.969 6.54845 261.2 8.33264 265.555 11.901L261.563 17.5258C260.233 16.3161 258.449 15.3485 256.211 14.6227C253.973 13.8364 251.765 13.4433 249.588 13.4433C247.35 13.4433 245.536 13.9271 244.145 14.8948C242.814 15.8021 242.149 17.1024 242.149 18.7959Z" fill="url(#paint2_linear_12_2)"/>
    </g>
    <defs>
        <filter id="filter0_d_12_2" x="0.885519" y="0.448446" width="276.13" height="66.1959" filterUnits="userSpaceOnUse" color-interpolation-filters="sRGB">
            <feFlood flood-opacity="0" result="BackgroundImageFix"/>
            <feColorMatrix in="SourceAlpha" type="matrix" values="0 0 0 0 0 0 0 0 0 0 0 0 0 0 0 0 0 0 127 0" result="hardAlpha"/>
            <feOffset dy="4"/>
            <feGaussianBlur stdDeviation="5.05"/>
            <feComposite in2="hardAlpha" operator="out"/>
            <feColorMatrix type="matrix" values="0 0 0 0 0.544686 0 0 0 0 0.590662 0 0 0 0 0.636637 0 0 0 1 0"/>
            <feBlend mode="normal" in2="BackgroundImageFix" result="effect1_dropShadow_12_2"/>
            <feBlend mode="normal" in="SourceGraphic" in2="effect1_dropShadow_12_2" result="shape"/>
        </filter>
        <linearGradient id="paint0_linear_12_2" x1="130.097" y1="60.24" x2="130.097" y2="-9.19999" gradientUnits="userSpaceOnUse">
            <stop stop-color="white"/>
            <stop offset="1" stop-color="white"/>
        </linearGradient>
        <linearGradient id="paint1_linear_12_2" x1="170.5" y1="5" x2="170.5" y2="52" gradientUnits="userSpaceOnUse">
            <stop stop-color="#40B9FD"/>
            <stop offset="1" stop-color="#3B9DF8"/>
        </linearGradient>
        <linearGradient id="paint2_linear_12_2" x1="137" y1="42.5" x2="136.5" y2="5.49999" gradientUnits="userSpaceOnUse">
            <stop stop-color="#F59131"/>
            <stop offset="1" stop-color="#FEDD42"/>
        </linearGradient>
    </defs>
</svg>
