<svg width="377" height="211" viewBox="0 0 377 211" fill="none" xmlns="http://www.w3.org/2000/svg">
<path d="M360.253 73.8269C362.318 83.486 359.72 93.6593 353.001 103.856C346.278 114.061 335.483 124.196 321.371 133.673C293.152 152.624 251.916 168.776 204.352 177.563C156.788 186.35 112.042 186.082 78.1706 178.602C61.2323 174.861 47.0881 169.333 36.6777 162.294C26.2749 155.26 19.6887 146.783 17.6233 137.124C15.5579 127.465 18.1563 117.292 24.8746 107.095C31.5978 96.89 42.3927 86.7546 56.5047 77.2776C84.724 58.3268 125.96 42.1749 173.524 33.388C221.088 24.601 265.834 24.8685 299.705 32.3488C316.644 36.0895 330.788 41.6177 341.198 48.657C351.601 55.6912 358.187 64.1678 360.253 73.8269Z" stroke="url(#paint0_linear_133_2)" stroke-width="3"/>
<path d="M20.4755 106.655V89.2005H27.1573C28.4187 89.2005 29.467 89.3993 30.3022 89.7971C31.1431 90.1891 31.771 90.7261 32.1857 91.4079C32.6062 92.0897 32.8164 92.8624 32.8164 93.7261C32.8164 94.4363 32.68 95.0442 32.4073 95.5499C32.1346 96.0499 31.7681 96.4562 31.3079 96.7687C30.8477 97.0812 30.3335 97.3056 29.7653 97.442V97.6124C30.3846 97.6465 30.9783 97.8368 31.5465 98.1834C32.1204 98.5243 32.5891 99.0073 32.9528 99.6323C33.3164 100.257 33.4982 101.013 33.4982 101.899C33.4982 102.803 33.2795 103.615 32.842 104.337C32.4045 105.053 31.7454 105.618 30.8647 106.033C29.984 106.448 28.8761 106.655 27.5408 106.655H20.4755ZM23.6374 104.013H27.038C28.1857 104.013 29.0124 103.794 29.5181 103.357C30.0295 102.914 30.2852 102.345 30.2852 101.652C30.2852 101.135 30.1573 100.669 29.9016 100.254C29.646 99.834 29.2823 99.5045 28.8107 99.2658C28.3391 99.0215 27.7766 98.8993 27.1232 98.8993H23.6374V104.013ZM23.6374 96.6238H26.7653C27.3107 96.6238 27.8022 96.5243 28.2397 96.3255C28.6772 96.1209 29.021 95.834 29.271 95.4647C29.5266 95.0897 29.6545 94.6465 29.6545 94.1351C29.6545 93.459 29.4158 92.9022 28.9386 92.4647C28.467 92.0272 27.7653 91.8084 26.8335 91.8084H23.6374V96.6238ZM39.8796 106.919C39.0501 106.919 38.3029 106.772 37.6381 106.476C36.979 106.175 36.4563 105.732 36.07 105.147C35.6893 104.561 35.4989 103.84 35.4989 102.982C35.4989 102.243 35.6353 101.632 35.908 101.149C36.1808 100.666 36.5529 100.28 37.0245 99.9903C37.4961 99.7005 38.0273 99.4817 38.6183 99.334C39.2148 99.1806 39.8313 99.0698 40.4677 99.0016C41.2347 98.9221 41.8569 98.8511 42.3342 98.7886C42.8114 98.7204 43.158 98.6181 43.3739 98.4817C43.5955 98.3397 43.7063 98.1209 43.7063 97.8255V97.7743C43.7063 97.1323 43.516 96.6351 43.1353 96.2829C42.7546 95.9306 42.2063 95.7545 41.4904 95.7545C40.7347 95.7545 40.1353 95.9192 39.6921 96.2488C39.2546 96.5783 38.9592 96.9675 38.8058 97.4164L35.9251 97.0073C36.1523 96.2118 36.5273 95.5471 37.0501 95.013C37.5728 94.4732 38.212 94.0698 38.9677 93.8028C39.7234 93.53 40.5586 93.3937 41.4734 93.3937C42.104 93.3937 42.7319 93.4675 43.3569 93.6153C43.9819 93.763 44.5529 94.0073 45.07 94.3482C45.587 94.6834 46.0018 95.1408 46.3143 95.7204C46.6325 96.2999 46.7915 97.0243 46.7915 97.8937V106.655H43.8256V104.857H43.7234C43.5359 105.22 43.2717 105.561 42.9308 105.879C42.5955 106.192 42.1722 106.445 41.6609 106.638C41.1552 106.825 40.5614 106.919 39.8796 106.919ZM40.6808 104.652C41.3001 104.652 41.837 104.53 42.2915 104.286C42.7461 104.036 43.0955 103.706 43.3398 103.297C43.5898 102.888 43.7148 102.442 43.7148 101.959V100.416C43.6183 100.496 43.4535 100.57 43.2205 100.638C42.9933 100.706 42.7376 100.766 42.4535 100.817C42.1694 100.868 41.8881 100.914 41.6097 100.953C41.3313 100.993 41.0898 101.027 40.8853 101.056C40.4251 101.118 40.0131 101.22 39.6495 101.362C39.2859 101.504 38.9989 101.703 38.7887 101.959C38.5785 102.209 38.4734 102.533 38.4734 102.931C38.4734 103.499 38.6808 103.928 39.0955 104.218C39.5103 104.507 40.0387 104.652 40.6808 104.652ZM49.8938 93.5641H52.8683V104.115H56.9847V93.5641H59.9592V104.115H64.0756V93.5641H67.0501V106.655H49.8938V93.5641ZM79.0948 102.479L84.3363 93.5641H87.5067V106.655H84.5238V97.7317L79.2994 106.655H76.1204V93.5641H79.0948V102.479ZM99.6665 98.8312V101.362H92.695V98.8312H99.6665ZM93.6495 93.5641V106.655H90.6751V93.5641H93.6495ZM101.686 93.5641V106.655H98.7205V93.5641H101.686ZM103.649 110.456V104.115H104.689C104.967 103.899 105.2 103.607 105.387 103.237C105.575 102.862 105.728 102.422 105.848 101.916C105.973 101.405 106.075 100.834 106.154 100.203C106.234 99.567 106.305 98.8823 106.368 98.1493L106.743 93.5641H116.203V104.115H118.231V110.456H115.248V106.655H106.683V110.456H103.649ZM107.859 104.115H113.254V96.0528H109.419L109.214 98.1493C109.1 99.5357 108.95 100.723 108.762 101.712C108.575 102.7 108.274 103.502 107.859 104.115ZM123.509 102.479L128.75 93.5641H131.921V106.655H128.938V97.7317L123.713 106.655H120.534V93.5641H123.509V102.479ZM135.089 106.655V93.5641H140.586C142.137 93.5641 143.362 93.8738 144.26 94.4931C145.163 95.1124 145.615 95.9761 145.615 97.084C145.615 97.817 145.359 98.4164 144.848 98.8823C144.342 99.3425 143.652 99.6522 142.777 99.8113C143.464 99.8681 144.066 100.041 144.583 100.331C145.106 100.621 145.515 101.002 145.811 101.473C146.106 101.945 146.254 102.487 146.254 103.101C146.254 103.823 146.064 104.45 145.683 104.985C145.308 105.513 144.76 105.925 144.038 106.22C143.322 106.51 142.453 106.655 141.43 106.655H135.089ZM137.978 104.226H141.43C141.998 104.226 142.444 104.093 142.768 103.825C143.092 103.553 143.254 103.183 143.254 102.718C143.254 102.178 143.092 101.754 142.768 101.448C142.444 101.135 141.998 100.979 141.43 100.979H137.978V104.226ZM137.978 98.9846H140.646C141.066 98.9846 141.427 98.9249 141.728 98.8056C142.029 98.6806 142.26 98.5073 142.419 98.2857C142.578 98.0584 142.657 97.7886 142.657 97.4761C142.657 97.0272 142.473 96.6749 142.103 96.4192C141.74 96.1636 141.234 96.0357 140.586 96.0357H137.978V98.9846ZM151.775 102.479L157.016 93.5641H160.186V106.655H157.203V97.7317L151.979 106.655H148.8V93.5641H151.775V102.479ZM162.196 110.456V104.115H163.235C163.514 103.899 163.747 103.607 163.934 103.237C164.122 102.862 164.275 102.422 164.395 101.916C164.52 101.405 164.622 100.834 164.701 100.203C164.781 99.567 164.852 98.8823 164.914 98.1493L165.289 93.5641H174.75V104.115H176.778V110.456H173.795V106.655H165.23V110.456H162.196ZM166.406 104.115H171.801V96.0528H167.966L167.761 98.1493C167.647 99.5357 167.497 100.723 167.309 101.712C167.122 102.7 166.821 103.502 166.406 104.115ZM180.999 111.564C180.578 111.564 180.189 111.53 179.831 111.462C179.479 111.399 179.198 111.325 178.988 111.24L179.703 108.837C180.152 108.968 180.553 109.03 180.905 109.024C181.257 109.019 181.567 108.908 181.834 108.692C182.107 108.482 182.337 108.129 182.525 107.635L182.789 106.928L178.042 93.5641H181.314L184.331 103.45H184.468L187.493 93.5641H190.775L185.533 108.24C185.289 108.933 184.965 109.527 184.561 110.022C184.158 110.522 183.664 110.902 183.078 111.164C182.499 111.431 181.806 111.564 180.999 111.564ZM196.301 106.919C195.472 106.919 194.725 106.772 194.06 106.476C193.401 106.175 192.878 105.732 192.492 105.147C192.111 104.561 191.921 103.84 191.921 102.982C191.921 102.243 192.057 101.632 192.33 101.149C192.603 100.666 192.975 100.28 193.446 99.9903C193.918 99.7005 194.449 99.4817 195.04 99.334C195.637 99.1806 196.253 99.0698 196.89 99.0016C197.657 98.9221 198.279 98.8511 198.756 98.7886C199.233 98.7204 199.58 98.6181 199.796 98.4817C200.017 98.3397 200.128 98.1209 200.128 97.8255V97.7743C200.128 97.1323 199.938 96.6351 199.557 96.2829C199.176 95.9306 198.628 95.7545 197.912 95.7545C197.157 95.7545 196.557 95.9192 196.114 96.2488C195.676 96.5783 195.381 96.9675 195.228 97.4164L192.347 97.0073C192.574 96.2118 192.949 95.5471 193.472 95.013C193.995 94.4732 194.634 94.0698 195.39 93.8028C196.145 93.53 196.98 93.3937 197.895 93.3937C198.526 93.3937 199.154 93.4675 199.779 93.6153C200.404 93.763 200.975 94.0073 201.492 94.3482C202.009 94.6834 202.424 95.1408 202.736 95.7204C203.054 96.2999 203.213 97.0243 203.213 97.8937V106.655H200.248V104.857H200.145C199.958 105.22 199.694 105.561 199.353 105.879C199.017 106.192 198.594 106.445 198.083 106.638C197.577 106.825 196.983 106.919 196.301 106.919ZM197.103 104.652C197.722 104.652 198.259 104.53 198.713 104.286C199.168 104.036 199.517 103.706 199.762 103.297C200.012 102.888 200.137 102.442 200.137 101.959V100.416C200.04 100.496 199.875 100.57 199.642 100.638C199.415 100.706 199.159 100.766 198.875 100.817C198.591 100.868 198.31 100.914 198.032 100.953C197.753 100.993 197.512 101.027 197.307 101.056C196.847 101.118 196.435 101.22 196.071 101.362C195.708 101.504 195.421 101.703 195.211 101.959C195 102.209 194.895 102.533 194.895 102.931C194.895 103.499 195.103 103.928 195.517 104.218C195.932 104.507 196.461 104.652 197.103 104.652ZM205.412 106.655L205.395 104.115H205.847C206.188 104.115 206.475 104.039 206.708 103.885C206.941 103.732 207.134 103.476 207.287 103.118C207.441 102.754 207.56 102.266 207.645 101.652C207.73 101.039 207.79 100.274 207.824 99.3596L208.054 93.5641H217.6V106.655H214.617V96.0954H210.858L210.654 100.314C210.603 101.405 210.48 102.351 210.287 103.152C210.1 103.948 209.833 104.604 209.486 105.121C209.145 105.638 208.716 106.024 208.199 106.28C207.682 106.53 207.071 106.655 206.367 106.655H205.412ZM222.794 97.8255H226.655C228.326 97.8255 229.618 98.2317 230.533 99.0442C231.448 99.8567 231.908 100.922 231.914 102.24C231.908 103.098 231.698 103.86 231.283 104.524C230.874 105.189 230.277 105.712 229.493 106.093C228.715 106.468 227.769 106.655 226.655 106.655H220.706V93.5641H223.681V104.124H226.655C227.326 104.124 227.877 103.953 228.309 103.612C228.74 103.266 228.956 102.823 228.956 102.283C228.956 101.715 228.74 101.252 228.309 100.894C227.877 100.536 227.326 100.357 226.655 100.357H222.794V97.8255ZM243.549 98.8312V101.362H236.578V98.8312H243.549ZM237.532 93.5641V106.655H234.558V93.5641H237.532ZM245.569 93.5641V106.655H242.603V93.5641H245.569ZM250.779 97.8255H254.64C256.31 97.8255 257.603 98.2317 258.517 99.0442C259.432 99.8567 259.892 100.922 259.898 102.24C259.892 103.098 259.682 103.86 259.267 104.524C258.858 105.189 258.262 105.712 257.478 106.093C256.699 106.468 255.753 106.655 254.64 106.655H248.691V93.5641H251.665V104.124H254.64C255.31 104.124 255.861 103.953 256.293 103.612C256.725 103.266 256.941 102.823 256.941 102.283C256.941 101.715 256.725 101.252 256.293 100.894C255.861 100.536 255.31 100.357 254.64 100.357H250.779V97.8255ZM261.526 106.655V93.5641H264.611V106.655H261.526ZM270.767 102.479L276.008 93.5641H279.179V106.655H276.196V97.7317L270.971 106.655H267.792V93.5641H270.767V102.479ZM275.164 89.0641H277.474C277.474 90.0584 277.113 90.8653 276.392 91.4846C275.676 92.0982 274.704 92.405 273.477 92.405C272.261 92.405 271.292 92.0982 270.571 91.4846C269.855 90.8653 269.5 90.0584 269.505 89.0641H271.798C271.798 89.4732 271.923 89.8397 272.173 90.1636C272.429 90.4817 272.863 90.6408 273.477 90.6408C274.079 90.6408 274.508 90.4817 274.764 90.1636C275.025 89.8454 275.159 89.4789 275.164 89.0641ZM288.3 106.655V93.5641H299.354V106.655H296.38V96.0954H291.249V106.655H288.3ZM301.623 106.655L301.606 104.115H302.058C302.399 104.115 302.686 104.039 302.919 103.885C303.152 103.732 303.345 103.476 303.498 103.118C303.652 102.754 303.771 102.266 303.856 101.652C303.941 101.039 304.001 100.274 304.035 99.3596L304.265 93.5641H313.811V106.655H310.828V96.0954H307.069L306.865 100.314C306.814 101.405 306.691 102.351 306.498 103.152C306.311 103.948 306.044 104.604 305.697 105.121C305.356 105.638 304.927 106.024 304.41 106.28C303.893 106.53 303.282 106.655 302.578 106.655H301.623ZM320.684 106.919C319.855 106.919 319.108 106.772 318.443 106.476C317.784 106.175 317.261 105.732 316.875 105.147C316.494 104.561 316.304 103.84 316.304 102.982C316.304 102.243 316.44 101.632 316.713 101.149C316.985 100.666 317.358 100.28 317.829 99.9903C318.301 99.7005 318.832 99.4817 319.423 99.334C320.02 99.1806 320.636 99.0698 321.272 99.0016C322.039 98.9221 322.662 98.8511 323.139 98.7886C323.616 98.7204 323.963 98.6181 324.179 98.4817C324.4 98.3397 324.511 98.1209 324.511 97.8255V97.7743C324.511 97.1323 324.321 96.6351 323.94 96.2829C323.559 95.9306 323.011 95.7545 322.295 95.7545C321.539 95.7545 320.94 95.9192 320.497 96.2488C320.059 96.5783 319.764 96.9675 319.61 97.4164L316.73 97.0073C316.957 96.2118 317.332 95.5471 317.855 95.013C318.377 94.4732 319.017 94.0698 319.772 93.8028C320.528 93.53 321.363 93.3937 322.278 93.3937C322.909 93.3937 323.537 93.4675 324.162 93.6153C324.787 93.763 325.358 94.0073 325.875 94.3482C326.392 94.6834 326.806 95.1408 327.119 95.7204C327.437 96.2999 327.596 97.0243 327.596 97.8937V106.655H324.63V104.857H324.528C324.341 105.22 324.076 105.561 323.735 105.879C323.4 106.192 322.977 106.445 322.466 106.638C321.96 106.825 321.366 106.919 320.684 106.919ZM321.485 104.652C322.105 104.652 322.642 104.53 323.096 104.286C323.551 104.036 323.9 103.706 324.145 103.297C324.395 102.888 324.52 102.442 324.52 101.959V100.416C324.423 100.496 324.258 100.57 324.025 100.638C323.798 100.706 323.542 100.766 323.258 100.817C322.974 100.868 322.693 100.914 322.414 100.953C322.136 100.993 321.895 101.027 321.69 101.056C321.23 101.118 320.818 101.22 320.454 101.362C320.091 101.504 319.804 101.703 319.593 101.959C319.383 102.209 319.278 102.533 319.278 102.931C319.278 103.499 319.485 103.928 319.9 104.218C320.315 104.507 320.843 104.652 321.485 104.652ZM339.69 98.8312V101.362H332.718V98.8312H339.69ZM333.673 93.5641V106.655H330.699V93.5641H333.673ZM341.71 93.5641V106.655H338.744V93.5641H341.71ZM158.526 122.564V125.095H152.884V135.655H149.866V122.564H158.526ZM166.17 135.911C164.892 135.911 163.784 135.629 162.847 135.067C161.909 134.504 161.182 133.718 160.665 132.706C160.153 131.695 159.898 130.513 159.898 129.161C159.898 127.808 160.153 126.624 160.665 125.607C161.182 124.59 161.909 123.8 162.847 123.237C163.784 122.675 164.892 122.394 166.17 122.394C167.449 122.394 168.557 122.675 169.494 123.237C170.432 123.8 171.156 124.59 171.668 125.607C172.185 126.624 172.443 127.808 172.443 129.161C172.443 130.513 172.185 131.695 171.668 132.706C171.156 133.718 170.432 134.504 169.494 135.067C168.557 135.629 167.449 135.911 166.17 135.911ZM166.188 133.439C166.881 133.439 167.46 133.249 167.926 132.868C168.392 132.482 168.739 131.965 168.966 131.317C169.199 130.669 169.315 129.948 169.315 129.152C169.315 128.351 169.199 127.627 168.966 126.979C168.739 126.325 168.392 125.806 167.926 125.419C167.46 125.033 166.881 124.84 166.188 124.84C165.477 124.84 164.886 125.033 164.415 125.419C163.949 125.806 163.599 126.325 163.366 126.979C163.139 127.627 163.026 128.351 163.026 129.152C163.026 129.948 163.139 130.669 163.366 131.317C163.599 131.965 163.949 132.482 164.415 132.868C164.886 133.249 165.477 133.439 166.188 133.439ZM173.619 125.095V122.564H185.074V125.095H180.838V135.655H177.855V125.095H173.619ZM192.702 135.911C191.423 135.911 190.315 135.629 189.378 135.067C188.44 134.504 187.713 133.718 187.196 132.706C186.685 131.695 186.429 130.513 186.429 129.161C186.429 127.808 186.685 126.624 187.196 125.607C187.713 124.59 188.44 123.8 189.378 123.237C190.315 122.675 191.423 122.394 192.702 122.394C193.98 122.394 195.088 122.675 196.026 123.237C196.963 123.8 197.688 124.59 198.199 125.607C198.716 126.624 198.974 127.808 198.974 129.161C198.974 130.513 198.716 131.695 198.199 132.706C197.688 133.718 196.963 134.504 196.026 135.067C195.088 135.629 193.98 135.911 192.702 135.911ZM192.719 133.439C193.412 133.439 193.991 133.249 194.457 132.868C194.923 132.482 195.27 131.965 195.497 131.317C195.73 130.669 195.847 129.948 195.847 129.152C195.847 128.351 195.73 127.627 195.497 126.979C195.27 126.325 194.923 125.806 194.457 125.419C193.991 125.033 193.412 124.84 192.719 124.84C192.009 124.84 191.418 125.033 190.946 125.419C190.48 125.806 190.131 126.325 189.898 126.979C189.67 127.627 189.557 128.351 189.557 129.152C189.557 129.948 189.67 130.669 189.898 131.317C190.131 131.965 190.48 132.482 190.946 132.868C191.418 133.249 192.009 133.439 192.719 133.439ZM201.593 135.655V122.564H207.09C208.641 122.564 209.866 122.874 210.763 123.493C211.667 124.112 212.119 124.976 212.119 126.084C212.119 126.817 211.863 127.416 211.352 127.882C210.846 128.343 210.156 128.652 209.281 128.811C209.968 128.868 210.57 129.041 211.087 129.331C211.61 129.621 212.019 130.002 212.315 130.473C212.61 130.945 212.758 131.487 212.758 132.101C212.758 132.823 212.567 133.45 212.187 133.985C211.812 134.513 211.263 134.925 210.542 135.22C209.826 135.51 208.957 135.655 207.934 135.655H201.593ZM204.482 133.226H207.934C208.502 133.226 208.948 133.093 209.272 132.825C209.596 132.553 209.758 132.183 209.758 131.718C209.758 131.178 209.596 130.754 209.272 130.448C208.948 130.135 208.502 129.979 207.934 129.979H204.482V133.226ZM204.482 127.985H207.15C207.57 127.985 207.931 127.925 208.232 127.806C208.533 127.681 208.763 127.507 208.923 127.286C209.082 127.058 209.161 126.789 209.161 126.476C209.161 126.027 208.977 125.675 208.607 125.419C208.244 125.164 207.738 125.036 207.09 125.036H204.482V127.985Z" fill="#130D33"/>
<defs>
<linearGradient id="paint0_linear_133_2" x1="38.5" y1="89.232" x2="257.197" y2="200.6" gradientUnits="userSpaceOnUse">
<stop stop-color="#F1F5FF"/>
<stop offset="1" stop-color="#6F9FFF"/>
</linearGradient>
</defs>
</svg>
